<?xml version="1.0" encoding="UTF-8"?>
<svg class="gitmoji-logo" width="457px" height="137px" viewBox="0 0 457 137" version="1.1" xmlns="http://www.w3.org/2000/svg" xmlns:xlink="http://www.w3.org/1999/xlink">
    <title>gitmoji</title>
    <defs></defs>
    <g id="gitmoji" stroke="none" stroke-width="1" fill="none" fill-rule="evenodd">
        <g id="Logo" transform="translate(-270.000000, -430.000000)">
            <g id="gitmoji" transform="translate(270.000000, 430.000000)">
                <path d="M17.464,106.28 C18.1360034,110.21602 19.9119856,113.431988 22.792,115.928 C25.6720144,118.424012 29.415977,119.672 34.024,119.672 C40.0720302,119.672 44.7279837,118.112016 47.992,114.992 C51.2560163,111.871984 52.888,106.856035 52.888,99.944 L52.888,94.76 C51.4479928,97.0640115 49.0960163,99.1519906 45.832,101.024 C42.5679837,102.896009 38.3440259,103.832 33.16,103.832 C28.4559765,103.832 24.0880202,102.968009 20.056,101.24 C16.0239798,99.5119914 12.5440146,97.1120154 9.616,94.04 C6.68798536,90.9679846 4.3840084,87.3440209 2.704,83.168 C1.0239916,78.9919791 0.184,74.408025 0.184,69.416 C0.184,64.7119765 0.99999184,60.2720209 2.632,56.096 C4.26400816,51.9199791 6.5199856,48.2480158 9.4,45.08 C12.2800144,41.9119842 15.7359798,39.4160091 19.768,37.592 C23.8000202,35.7679909 28.2639755,34.856 33.16,34.856 C38.8240283,34.856 43.2879837,35.8639899 46.552,37.88 C49.8160163,39.8960101 52.0719938,42.103988 53.32,44.504 L53.32,36.152 L71.752,36.152 L71.752,99.368 C71.752,104.264024 71.056007,108.943978 69.664,113.408 C68.271993,117.872022 66.0880149,121.807983 63.112,125.216 C60.1359851,128.624017 56.2960235,131.35999 51.592,133.424 C46.8879765,135.48801 41.2240331,136.52 34.6,136.52 C29.7039755,136.52 25.2640199,135.824007 21.28,134.432 C17.2959801,133.039993 13.8160149,131.168012 10.84,128.816 C7.86398512,126.463988 5.46400912,123.728016 3.64,120.608 C1.81599088,117.487984 0.6640024,114.248017 0.184,110.888 L17.464,106.28 Z M36.472,87.416 C41.3680245,87.416 45.3759844,85.7840163 48.496,82.52 C51.6160156,79.2559837 53.176,74.8880274 53.176,69.416 C53.176,63.9439726 51.5440163,59.6000161 48.28,56.384 C45.0159837,53.1679839 41.080023,51.56 36.472,51.56 C34.071988,51.56 31.8400103,51.9679959 29.776,52.784 C27.7119897,53.6000041 25.9120077,54.7999921 24.376,56.384 C22.8399923,57.9680079 21.6400043,59.863989 20.776,62.072 C19.9119957,64.280011 19.48,66.7279866 19.48,69.416 C19.48,74.9840278 21.0639842,79.3759839 24.232,82.592 C27.4000158,85.8080161 31.479975,87.416 36.472,87.416 L36.472,87.416 Z M91.192,107 L91.192,36.152 L110.344,36.152 L110.344,107 L91.192,107 Z M88.888,12.968 C88.888,9.6079832 90.0399885,6.77601152 92.344,4.472 C94.6480115,2.16798848 97.4319837,1.016 100.696,1.016 C104.056017,1.016 106.863989,2.16798848 109.12,4.472 C111.376011,6.77601152 112.504,9.6079832 112.504,12.968 C112.504,16.1360158 111.376011,18.8719885 109.12,21.176 C106.863989,23.4800115 104.056017,24.632 100.696,24.632 C97.4319837,24.632 94.6480115,23.4800115 92.344,21.176 C90.0399885,18.8719885 88.888,16.1360158 88.888,12.968 L88.888,12.968 Z M154.408,36.152 L168.664,36.152 L168.664,53.144 L154.408,53.144 L154.408,82.808 C154.408,85.8800154 155.103993,88.015994 156.496,89.216 C157.888007,90.416006 159.975986,91.016 162.76,91.016 C163.912006,91.016 165.063994,90.9680005 166.216,90.872 C167.368006,90.7759995 168.183998,90.632001 168.664,90.44 L168.664,106.28 C167.799996,106.664002 166.480009,107.047998 164.704,107.432 C162.927991,107.816002 160.648014,108.008 157.864,108.008 C150.951965,108.008 145.48002,106.088019 141.448,102.248 C137.41598,98.4079808 135.4,93.0320346 135.4,86.12 L135.4,53.144 L122.584,53.144 L122.584,36.152 L126.184,36.152 C129.928019,36.152 132.687991,35.0720108 134.464,32.912 C136.240009,30.7519892 137.128,28.0880158 137.128,24.92 L137.128,14.984 L154.408,14.984 L154.408,36.152 Z M183.928,107 L183.928,36.152 L202.216,36.152 L202.216,44.792 C203.176005,43.0639914 204.423992,41.5280067 205.96,40.184 C207.496008,38.8399933 209.199991,37.7360043 211.072,36.872 C212.944009,36.0079957 214.91199,35.3360024 216.976,34.856 C219.04001,34.3759976 221.03199,34.136 222.952,34.136 C227.848024,34.136 232.119982,35.1439899 235.768,37.16 C239.416018,39.1760101 242.151991,42.1039808 243.976,45.944 C246.760014,41.6239784 250.023981,38.5760089 253.768,36.8 C257.512019,35.0239911 261.735976,34.136 266.44,34.136 C269.704016,34.136 272.871985,34.639995 275.944,35.648 C279.016015,36.656005 281.751988,38.263989 284.152,40.472 C286.552012,42.680011 288.471993,45.487983 289.912,48.896 C291.352007,52.304017 292.072,56.3599765 292.072,61.064 L292.072,107 L273.496,107 L273.496,64.952 C273.496,61.1119808 272.51201,57.9200127 270.544,55.376 C268.57599,52.8319873 265.384022,51.56 260.968,51.56 C256.839979,51.56 253.624012,52.9279863 251.32,55.664 C249.015988,58.4000137 247.864,61.6879808 247.864,65.528 L247.864,107 L228.856,107 L228.856,64.952 C228.856,61.1119808 227.84801,57.9200127 225.832,55.376 C223.81599,52.8319873 220.648022,51.56 216.328,51.56 C212.103979,51.56 208.840012,52.9039866 206.536,55.592 C204.231988,58.2800134 203.08,61.5919803 203.08,65.528 L203.08,107 L183.928,107 Z M343.336,91.736 C345.640012,91.736 347.895989,91.3040043 350.104,90.44 C352.312011,89.5759957 354.231992,88.3040084 355.864,86.624 C357.496008,84.9439916 358.815995,82.8560125 359.824,80.36 C360.832005,77.8639875 361.336,74.9360168 361.336,71.576 C361.336,68.2159832 360.832005,65.2880125 359.824,62.792 C358.815995,60.2959875 357.496008,58.2080084 355.864,56.528 C354.231992,54.8479916 352.312011,53.5760043 350.104,52.712 C347.895989,51.8479957 345.640012,51.416 343.336,51.416 C341.031988,51.416 338.776011,51.8479957 336.568,52.712 C334.359989,53.5760043 332.440008,54.8479916 330.808,56.528 C329.175992,58.2080084 327.856005,60.2959875 326.848,62.792 C325.839995,65.2880125 325.336,68.2159832 325.336,71.576 C325.336,74.9360168 325.839995,77.8639875 326.848,80.36 C327.856005,82.8560125 329.175992,84.9439916 330.808,86.624 C332.440008,88.3040084 334.359989,89.5759957 336.568,90.44 C338.776011,91.3040043 341.031988,91.736 343.336,91.736 L343.336,91.736 Z M343.336,33.992 C348.616026,33.992 353.535977,34.9279906 358.096,36.8 C362.656023,38.6720094 366.591983,41.2639834 369.904,44.576 C373.216017,47.8880166 375.807991,51.847977 377.68,56.456 C379.552009,61.064023 380.488,66.1039726 380.488,71.576 C380.488,77.0480274 379.552009,82.0639772 377.68,86.624 C375.807991,91.1840228 373.216017,95.1439832 369.904,98.504 C366.591983,101.864017 362.656023,104.479991 358.096,106.352 C353.535977,108.224009 348.616026,109.16 343.336,109.16 C338.055974,109.16 333.136023,108.224009 328.576,106.352 C324.015977,104.479991 320.080017,101.864017 316.768,98.504 C313.455983,95.1439832 310.864009,91.1840228 308.992,86.624 C307.119991,82.0639772 306.184,77.0480274 306.184,71.576 C306.184,66.1039726 307.119991,61.064023 308.992,56.456 C310.864009,51.847977 313.455983,47.8880166 316.768,44.576 C320.080017,41.2639834 324.015977,38.6720094 328.576,36.8 C333.136023,34.9279906 338.055974,33.992 343.336,33.992 L343.336,33.992 Z M395.608,36.152 L414.76,36.152 L414.76,113.192 C414.76,116.648017 414.256005,119.791986 413.248,122.624 C412.239995,125.456014 410.77601,127.90399 408.856,129.968 C406.93599,132.03201 404.608014,133.639994 401.872,134.792 C399.135986,135.944006 396.040017,136.52 392.584,136.52 C389.799986,136.52 387.42401,136.304002 385.456,135.872 C383.48799,135.439998 382.264002,135.128001 381.784,134.936 L381.784,118.952 C382.456003,119.144001 383.271995,119.311999 384.232,119.456 C385.192005,119.600001 386.343993,119.672 387.688,119.672 C390.568014,119.672 392.607994,118.928007 393.808,117.44 C395.008006,115.951993 395.608,113.912013 395.608,111.32 L395.608,36.152 Z M393.304,12.824 C393.304,9.4639832 394.455988,6.63201152 396.76,4.328 C399.064012,2.02398848 401.847984,0.872 405.112,0.872 C408.472017,0.872 411.279989,2.02398848 413.536,4.328 C415.792011,6.63201152 416.92,9.4639832 416.92,12.824 C416.92,16.0880163 415.792011,18.8479887 413.536,21.104 C411.279989,23.3600113 408.472017,24.488 405.112,24.488 C401.847984,24.488 399.064012,23.3600113 396.76,21.104 C394.455988,18.8479887 393.304,16.0880163 393.304,12.824 L393.304,12.824 Z M435.208,107 L435.208,36.152 L454.36,36.152 L454.36,107 L435.208,107 Z M432.904,12.968 C432.904,9.6079832 434.055988,6.77601152 436.36,4.472 C438.664012,2.16798848 441.447984,1.016 444.712,1.016 C448.072017,1.016 450.879989,2.16798848 453.136,4.472 C455.392011,6.77601152 456.52,9.6079832 456.52,12.968 C456.52,16.1360158 455.392011,18.8719885 453.136,21.176 C450.879989,23.4800115 448.072017,24.632 444.712,24.632 C441.447984,24.632 438.664012,23.4800115 436.36,21.176 C434.055988,18.8719885 432.904,16.1360158 432.904,12.968 L432.904,12.968 Z" fill="#000000"></path>
                <g id="tongue" transform="translate(304.000000, 32.000000)">
                    <g id="Group">
                        <ellipse id="Oval" fill="#FFDD67" cx="39" cy="39" rx="39" ry="39"></ellipse>
                        <path d="M38.025,29.3696 C38.025,36.5495 32.2023,42.3696 25.025,42.3696 C17.8464,42.3696 12.025,36.5495 12.025,29.3696 C12.025,22.1949 17.8464,16.3696 25.025,16.3696 C32.2023,16.3696 38.025,22.1949 38.025,29.3696 L38.025,29.3696 Z" id="Shape" fill="#FFFFFF"></path>
                        <ellipse id="Oval" fill="#664E27" cx="25.025" cy="29.3696" rx="5.85" ry="5.85"></ellipse>
                        <path d="M63.6701,35.2729 C61.2469,29.9585 57.5991,27.3 53.95,27.3 C50.3009,27.3 46.6531,29.9585 44.2299,35.2729 C43.9894,35.8085 45.2387,36.7731 45.8627,36.2479 C48.2131,34.2719 51.0185,33.4841 53.95,33.4841 C56.8815,33.4841 59.6869,34.2719 62.0373,36.2479 C62.66,36.7731 63.9093,35.8085 63.6701,35.2729 L63.6701,35.2729 Z" id="Shape" fill="#664E27"></path>
                        <g transform="translate(16.900000, 46.800000)" id="Shape">
                            <path d="M42.7414,0 L1.4638,0 C0.5109,0 0.0013,0.6591 0.0013,1.3 C0.0013,10.7523 7.7493,20.8 22.1026,20.8 C36.4559,20.8 44.2039,10.7523 44.2039,1.3 C44.2039,0.6591 43.693,0 42.7414,0 L42.7414,0 Z" fill="#664E27"></path>
                            <path d="M34.034,7.8 L22.1026,7.8 L10.1712,7.8 C9.2508,7.8 9.1026,8.2121 9.1026,8.9037 L9.1026,14.0972 C9.1026,25.4826 14.9253,31.1948 22.1026,31.2 C29.2799,31.1948 35.1026,25.4826 35.1026,14.0972 L35.1026,8.9037 C35.1026,8.2121 34.9544,7.8 34.034,7.8 L34.034,7.8 Z" fill="#FF717F"></path>
                            <polygon fill="#E2596C" points="24.05 7.8 22.1026 25.7257 20.15 7.8"></polygon>
                        </g>
                    </g>
                </g>
                <g id="sexy" transform="translate(304.000000, 32.000000)">
                    <g id="Group">
                        <ellipse id="Oval" fill="#FFDD67" cx="39" cy="39" rx="39" ry="39"></ellipse>
                        <ellipse id="Oval" fill="#FF717F" cx="66.0543" cy="45.6781" rx="10.4" ry="10.4"></ellipse>
                        <ellipse id="Oval" fill="#FF717F" cx="11.9457" cy="45.6781" rx="10.4" ry="10.4"></ellipse>
                        <path d="M68.4385,24.2151 C64.9102967,19.9858414 59.681281,17.5483662 54.1736,17.5656 C53.4092,17.5786 53.2363,14.7316 54.1684,14.7173 C60.5231567,14.6993409 66.5557437,17.5126421 70.6264,22.3925 C71.2127,23.1127 68.9182,24.8092 68.4385,24.2151 L68.4385,24.2151 Z M23.8238,17.3693 C18.3164392,17.3535212 13.0880118,19.7907222 9.5589,24.0188 C9.0792,24.6181 6.786,22.9164 7.3723,22.1962 C11.4429563,17.3163421 17.4755433,14.5030409 23.8303,14.521 C24.7637,14.5366 24.5882,17.3849 23.8238,17.3693 L23.8238,17.3693 Z" id="Shape" fill="#917524"></path>
                        <ellipse id="Oval" fill="#664E27" cx="39" cy="61.7123" rx="5.85" ry="5.85"></ellipse>
                        <path d="M35.75,35.2781 C35.75,41.7398316 30.5117316,46.9781 24.05,46.9781 C17.5882684,46.9781 12.35,41.7398316 12.35,35.2781 C12.35,28.821 17.5877,23.5781 24.05,23.5781 C30.5097,23.5781 35.75,28.821 35.75,35.2781 L35.75,35.2781 Z" id="Shape" fill="#FFFFFF"></path>
                        <ellipse id="Oval" fill="#664E27" cx="24.05" cy="35.2781" rx="5.85" ry="5.85"></ellipse>
                        <g transform="translate(41.600000, 23.400000)">
                            <path d="M24.05,11.8781 C24.05,18.3398316 18.8117316,23.5781 12.35,23.5781 C5.88826843,23.5781 0.65,18.3398316 0.65,11.8781 C0.65,5.421 5.8877,0.1781 12.35,0.1781 C18.8097,0.1781 24.05,5.421 24.05,11.8781 L24.05,11.8781 Z" id="Shape" fill="#FFFFFF"></path>
                            <ellipse id="Oval" fill="#664E27" cx="12.35" cy="11.8781" rx="5.85" ry="5.85"></ellipse>
                        </g>
                    </g>
                </g>
                <g id="sunglasses" transform="translate(304.000000, 32.000000)">
                    <g id="Group">
                        <path d="M39,0 C60.541,0 78,17.4616 78,39 C78,60.5384 60.541,78 39,78 C17.4616,78 0,60.5384 0,39 C0,17.4616 17.4616,0 39,0" id="Shape" fill="#FFDD67"></path>
                        <path d="M44.0037,24.0149 C41.1463,25.4423 36.8576,25.4423 33.9976,24.0149 C30.9439,22.4497 27.2116,21.4448 22.7461,21.0522 C18.382,20.67 9.1364,20.683 4.5097,22.3106 C3.97598783,22.5042757 3.45571212,22.7331449 2.9523,22.9957 C2.6676,23.14 2.6117,23.2466 2.6117,23.7809 L2.6117,24.466 C2.6117,25.7556 2.4505,25.2564 3.3722,25.792 C5.1662,26.8437 6.1867,29.575 6.734,33.3333 C7.5114,38.8102 10.1998,42.2435 14.5626,43.8828 C18.6331579,45.4014711 23.1229064,45.3528206 27.1596,43.7463 C29.3579,42.8675 31.2884,41.4817 32.8224,39.2262 C35.5095,35.2781 34.7048,32.8094 36.0919,29.4151 C37.3035,26.455 40.6965,26.455 41.9068,29.4151 C43.2952,32.8094 42.4905,35.2781 45.1776,39.2262 C46.7116,41.4804 48.6421,42.8675 50.8391,43.7463 C54.8762513,45.3527821 59.3663887,45.4014319 63.4374,43.8828 C67.7989,42.2422 70.4886,38.8102 71.266,33.3333 C71.8133,29.575 72.8312,26.8437 74.6265,25.792 C75.5482,25.2577 75.3883,25.7569 75.3883,24.466 L75.3883,23.7809 C75.3883,23.2479 75.3298,23.1413 75.0477,22.9957 C74.5438747,22.7330751 74.023162,22.5042047 73.489,22.3106 C68.8623,20.683 59.618,20.67 55.2552,21.0509 C50.7884,21.4448 47.0561,22.4497 44.0037,24.0149" id="Shape" fill="#494949"></path>
                        <path d="M55.3592,52.3627 C44.8175,59.7155 33.1227,59.6726 22.6408,52.3627 C21.3798,51.4826 20.2423,53.0062 21.0977,54.4141 C24.2918,59.6752 30.7398,64.3591 39,64.3591 C47.2602,64.3591 53.7082,59.6739 56.9023,54.4141 C57.759,53.0062 56.6215,51.4839 55.3592,52.3627 L55.3592,52.3627 Z" id="Shape" fill="#664E27"></path>
                    </g>
                </g>
                <g id="haha" transform="translate(304.000000, 32.000000)">
                    <g id="Group">
                        <path d="M39,78 C60.5391052,78 78,60.5391052 78,39 C78,17.4608948 60.5391052,0 39,0 C17.4608948,0 0,17.4608948 0,39 C0,60.5391052 17.4608948,78 39,78 Z" id="Oval" fill="#FFDD67"></path>
                        <g transform="translate(11.700000, 20.500000)" id="Shape" fill="#664E27">
                            <path d="M52.871,2.0888 C53.1603821,2.23834345 53.3221188,2.55582258 53.272964,2.87783038 C53.2238093,3.19983819 52.9747189,3.45460422 52.6539,3.511 C49.153,4.0349 45.4415,4.6303 41.9211,6.5803 C47.1484,7.4474 51.3461,10.128 53.6237,12.858 C54.1385,13.4742 53.495,14.3088 52.9191,14.0995 C46.7155,11.8479 40.3364,10.6285 32.318,11.4527 C31.6875,11.5177 31.1441,11.1524 31.2767,10.5713 C33.4178,1.2061 45.4636,-2.3273 52.871,2.0888 L52.871,2.0888 Z M1.729,2.0888 C1.43961794,2.23834345 1.27788123,2.55582258 1.32703599,2.87783038 C1.37619074,3.19983819 1.62528115,3.45460422 1.9461,3.511 C5.447,4.0349 9.1585,4.6303 12.6789,6.5803 C7.4516,7.4474 3.2539,10.128 0.9763,12.858 C0.4615,13.4742 1.1063,14.3088 1.6809,14.0995 C7.8845,11.8479 14.2636,10.6285 22.282,11.4527 C22.9138,11.5177 23.4559,11.1524 23.3233,10.5713 C21.1822,1.2061 9.1364,-2.3273 1.729,2.0888 L1.729,2.0888 Z"></path>
                        </g>
                        <path d="M62.0048,42.1668 C61.477,41.4908 60.5397,41.6078 59.5179,41.6078 L18.4808,41.6078 C17.4603,41.6078 16.523,41.4908 15.9952,42.1668 C10.9122,48.6486 16.8922,67.6 39,67.6 C61.1091,67.6 67.0878,48.6486 62.0048,42.1668 L62.0048,42.1668 Z" id="Shape" fill="#664E27"></path>
                        <path d="M41.3946,51.6633 C40.6432,51.6451 39.4849,52.3471 39.9087,54.2074 C40.1206,55.1473 41.4544,56.2835 41.4544,57.7993 C41.4544,60.8829 36.5443,60.8829 36.5443,57.7993 C36.5443,56.2835 37.8781,55.1473 38.0926,54.2074 C38.5164,52.3471 37.3581,51.6451 36.6041,51.6633 C34.5618,51.7166 31.2104,53.9201 31.2104,57.6485 C31.2104,61.8397 34.6996,65.2353 38.9987,65.2353 C43.2978,65.2353 46.787,61.8397 46.787,57.6485 C46.7883,53.9214 43.4356,51.7166 41.3946,51.6633 L41.3946,51.6633 Z" id="Shape" fill="#4C3526"></path>
                        <path d="M28.9731,63.2645 C31.8721,64.5073 35.2144,65.2366 39.0013,65.2366 C42.7882,65.2366 46.1292,64.5073 49.0269,63.2645 C46.2332,61.9229 42.9039,61.1026 39.0013,61.1026 C35.0987,61.1026 31.772,61.9229 28.9731,63.2645 L28.9731,63.2645 Z" id="Shape" fill="#FF717F"></path>
                        <path d="M58.4389,44.2 L19.5611,44.2 C16.8922,44.2 16.8922,49.4 19.4922,49.4 L58.5078,49.4 C61.1091,49.4 61.1091,44.2 58.4389,44.2 L58.4389,44.2 Z" id="Shape" fill="#FFFFFF"></path>
                    </g>
                </g>
                <g id="loved" transform="translate(304.000000, 32.000000)">
                    <g id="Group">
                        <path d="M78,38.9987 C78,60.5384 60.5384,78 39.0026,78 C17.4642,78 0,60.5384 0,38.9987 C0,17.4616 17.4642,0 39.0026,0 C60.5384,0 78,17.4616 78,38.9987 L78,38.9987 Z" id="Shape" fill="#FFDD67"></path>
                        <path d="M77.8024,14.5847 C77.2005,11.1345 75.1621,8.229 72.0005,7.3658 C68.5503,6.4207 65.3939,7.7766 62.3311,10.8797 C60.6151,6.1594 57.9917,2.6559 53.8551,0.858 C49.6184,-0.9893 45.5,0.2548 42.9026,3.5399 C40.2038,6.9576 39.13,12.2213 42.0186,19.1074 C44.7252,25.5541 56.8542,38.6217 57.2052,39 C57.6771,38.7049 71.1854,30.2627 74.4939,26.1196 C77.7309,22.0623 78.4017,18.0232 77.8024,14.5847 L77.8024,14.5847 Z M35.1026,3.5399 C32.5078,0.2548 28.3868,-0.9893 24.1488,0.858 C20.0096,2.6559 17.3875,6.1594 15.6689,10.8797 C12.6061,7.7779 9.451,6.422 5.9995,7.3671 C2.8405,8.2303 0.7995,11.1345 0.1976,14.586 C-0.3991,18.0245 0.2717,22.0636 3.5061,26.1209 C6.8172,30.264 20.3281,38.7062 20.8,39 C21.1484,38.6217 33.28,25.5528 35.9866,19.1061 C38.8752,12.2213 37.8014,6.9576 35.1026,3.5399 L35.1026,3.5399 Z" id="Shape" fill="#F46767"></path>
                        <path d="M61.1,46.8663 C61.1,45.8224 60.4838,44.5146 58.7314,44.1805 C54.2282,43.3199 47.5748,42.4333 38.9987,42.4333 L38.9974,42.4333 C30.4239,42.4333 23.7692,43.3199 19.2673,44.1805 C17.5123,44.5159 16.8987,45.8237 16.8987,46.8663 C16.8987,56.3186 24.193,65.8333 38.9974,65.8333 L38.9987,65.8333 C53.8044,65.8333 61.1,56.3186 61.1,46.8663 L61.1,46.8663 Z" id="Shape" fill="#664E27"></path>
                        <path d="M55.497,47.1679 C52.6435,46.6908 46.6076,45.8523 39,45.8523 C31.3898,45.8523 25.3552,46.6908 22.5017,47.1679 C20.8195,47.4526 20.7168,48.1351 20.8338,49.0997 C20.904,49.6756 21.0119,50.3672 21.1783,51.1186 C21.3629,51.9519 21.5189,52.3354 22.8241,52.1794 C25.3214,51.8817 52.6825,51.8817 55.1785,52.1794 C56.4837,52.3341 56.6384,51.9506 56.8243,51.1186 C56.9894,50.3672 57.0986,49.6769 57.1688,49.0997 C57.2819,48.1351 57.1792,47.4526 55.497,47.1679 L55.497,47.1679 Z" id="Shape" fill="#FFFFFF"></path>
                    </g>
                </g>
                <g id="joy" transform="translate(304.000000, 32.000000)">
                    <g id="Group">
                        <circle id="Oval" fill="#FFDD67" cx="39" cy="39" r="39"></circle>
                        <path d="M62.0048,42.1668 C61.477,41.4908 60.5397,41.6078 59.5192,41.6078 L18.4808,41.6078 C17.4603,41.6078 16.5243,41.4908 15.9952,42.1668 C10.9122,48.6486 16.8922,67.6 39,67.6 C61.1091,67.6 67.0878,48.6486 62.0048,42.1668 L62.0048,42.1668 Z" id="Shape" fill="#664E27"></path>
                        <path d="M41.3959,51.662 C40.6445,51.6438 39.4849,52.3471 39.9087,54.2061 C40.1206,55.146 41.4557,56.2835 41.4557,57.7993 C41.4557,60.8816 36.5456,60.8816 36.5456,57.7993 C36.5456,56.2835 37.8781,55.146 38.0926,54.2061 C38.5164,52.3471 37.3581,51.6438 36.6041,51.662 C34.5618,51.7153 31.2104,53.9188 31.2104,57.6485 C31.2104,61.8384 34.6996,65.2353 39,65.2353 C43.2991,65.2353 46.787,61.8384 46.787,57.6485 C46.7883,53.9201 43.4369,51.7153 41.3959,51.662 L41.3959,51.662 Z" id="Shape" fill="#4C3526"></path>
                        <path d="M28.9731,63.2632 C31.8708,64.5073 35.2131,65.2366 39,65.2366 C42.7882,65.2366 46.1292,64.5073 49.0269,63.2632 C46.2319,61.9229 42.9026,61.1026 39,61.1026 C35.0974,61.1026 31.7707,61.9229 28.9731,63.2632 L28.9731,63.2632 Z" id="Shape" fill="#FF717F"></path>
                        <path d="M58.4402,44.2 L19.5611,44.2 C16.8922,44.2 16.8922,49.4 19.4922,49.4 L58.5091,49.4 C61.1091,49.4 61.1091,44.2 58.4402,44.2 L58.4402,44.2 Z" id="Shape" fill="#FFFFFF"></path>
                        <g transform="translate(0.000000, 37.700000)" id="Shape" fill="#65B1EF">
                            <path d="M74.672,7.6362 C84.1711,17.6189 71.2647,31.187 61.763,21.2043 C54.8262,13.91 54.5116,0.013 54.5116,0.013 C54.5116,0.013 67.7378,0.3471 74.672,7.6362 L74.672,7.6362 Z M16.2344,21.2043 C6.7379,31.187 -6.1737,17.6189 3.328,7.6362 C10.2648,0.3458 23.4884,0.013 23.4884,0.013 C23.4884,0.013 23.1712,13.9139 16.2344,21.2043 L16.2344,21.2043 Z"></path>
                        </g>
                        <g transform="translate(14.300000, 24.700000)" id="Shape" fill="#664E27">
                            <path d="M20.1838,9.9697 C17.7671,3.3254 14.1258,0 10.4845,0 C6.8432,0 3.2019,3.3254 0.7865,9.9697 C0.5473,10.6392 1.7927,11.8456 2.4167,11.1891 C4.7593,8.7178 7.5608,7.7337 10.4845,7.7337 C13.4095,7.7337 16.211,8.7178 18.5536,11.1891 C19.175,11.8456 20.423,10.6392 20.1838,9.9697 L20.1838,9.9697 Z M48.6148,9.9697 C46.1968,3.3254 42.5555,0 38.9155,0 C35.2755,0 31.6329,3.3254 29.2162,9.9697 C28.977,10.6392 30.2237,11.8456 30.8464,11.1891 C33.1903,8.7178 35.9905,7.7337 38.9155,7.7337 C41.8405,7.7337 44.6407,8.7178 46.9846,11.1891 C47.606,11.8456 48.8527,10.6392 48.6148,9.9697 L48.6148,9.9697 Z"></path>
                        </g>
                    </g>
                </g>
            </g>
        </g>
    </g>
</svg>
